<?xml version="1.0" encoding="utf-8"?>
<!-- Generator: Adobe Illustrator 25.2.3, SVG Export Plug-In . SVG Version: 6.00 Build 0)  -->
<svg version="1.1" id="レイヤー_1" xmlns="http://www.w3.org/2000/svg" xmlns:xlink="http://www.w3.org/1999/xlink" x="0px"
	 y="0px" viewBox="0 0 43.2 17.2" style="enable-background:new 0 0 43.2 17.2;" xml:space="preserve">
<style type="text/css">
	.st0{fill:#DE2726;}
	.st1{fill:#FFFFFF;}
</style>
<g>
	<path class="st0" d="M41.2,17.2H2.1c-1.1,0-2.1-0.9-2.1-2.1V2.1C0,0.9,0.9,0,2.1,0h39.1c1.1,0,2.1,0.9,2.1,2.1v13.1
		C43.2,16.3,42.3,17.2,41.2,17.2z"/>
	<g>
		<path class="st1" d="M9.4,8.6l4.6,4.6l-0.4,0.4L9,9l-4.6,4.6l-0.4-0.4l4.6-4.6L4.1,4.1l0.4-0.4L9,8.3l4.5-4.5l0.4,0.4L9.4,8.6z
			 M5.7,7.7C6,7.7,6.2,7.8,6.4,8c0.2,0.2,0.2,0.4,0.2,0.6c0,0.3-0.1,0.5-0.3,0.7C6.1,9.5,5.9,9.5,5.7,9.5C5.4,9.5,5.2,9.4,5,9.2
			C4.9,9.1,4.8,8.9,4.8,8.6c0-0.3,0.1-0.5,0.3-0.7C5.3,7.8,5.5,7.7,5.7,7.7z M9,4.4c0.3,0,0.5,0.1,0.7,0.3c0.2,0.2,0.2,0.4,0.2,0.6
			c0,0.3-0.1,0.5-0.3,0.7C9.4,6.2,9.2,6.2,9,6.2c-0.3,0-0.5-0.1-0.7-0.3C8.2,5.8,8.1,5.6,8.1,5.3c0-0.3,0.1-0.5,0.3-0.7
			C8.6,4.5,8.8,4.4,9,4.4z M9,11c0.3,0,0.5,0.1,0.7,0.3c0.2,0.2,0.2,0.4,0.2,0.6c0,0.3-0.1,0.5-0.3,0.7c-0.2,0.2-0.4,0.2-0.6,0.2
			c-0.3,0-0.5-0.1-0.7-0.3c-0.2-0.2-0.2-0.4-0.2-0.6c0-0.3,0.1-0.5,0.3-0.7C8.6,11.1,8.8,11,9,11z M12.3,7.7c0.3,0,0.5,0.1,0.7,0.3
			c0.2,0.2,0.2,0.4,0.2,0.6c0,0.3-0.1,0.5-0.3,0.7c-0.2,0.2-0.4,0.2-0.6,0.2c-0.3,0-0.5-0.1-0.7-0.3c-0.2-0.2-0.2-0.4-0.2-0.6
			c0-0.3,0.1-0.5,0.3-0.7C11.8,7.8,12.1,7.7,12.3,7.7z"/>
		<path class="st1" d="M24.9,4.8c0,0,0,0.1-0.1,0.2c-0.1,0.1-0.3,0.4-0.5,0.9c-0.8,1.6-1.6,2.8-2.4,3.8c-0.5,0.6-1.2,1.2-1.9,1.8
			v0.8c0,0.4,0.1,0.6,0.3,0.7c0.2,0.1,0.6,0.1,1.2,0.1c0.7,0,1.2-0.1,1.4-0.2c0.2-0.1,0.3-0.3,0.4-0.6c0.1-0.3,0.1-0.7,0.1-1.3
			c0-0.1,0-0.2,0-0.3c0.1,0.1,0.3,0.2,0.6,0.3c0.1,0,0.2,0.1,0.2,0.2c0,0,0,0,0,0.1c0,0.8-0.1,1.3-0.2,1.7c-0.1,0.3-0.3,0.5-0.5,0.6
			c-0.3,0.2-1,0.3-2,0.3c-0.8,0-1.4-0.1-1.7-0.2c-0.2-0.1-0.4-0.2-0.4-0.4c-0.1-0.2-0.1-0.4-0.1-0.7V12c-0.9,0.6-1.8,1.1-2.7,1.5
			c-0.1,0-0.2,0.1-0.2,0.1c0,0-0.1-0.1-0.2-0.2c-0.1-0.2-0.3-0.3-0.4-0.4c1.2-0.4,2.4-1.1,3.4-1.9V7.4c0-0.4,0-0.8-0.1-1
			c0.3,0,0.5,0,0.8,0.1c0.1,0,0.2,0.1,0.2,0.1c0,0,0,0.1-0.1,0.2C20,6.8,20,7.1,20,7.5v2.9c0.5-0.4,0.9-0.8,1.3-1.2
			c0.8-1,1.6-2.1,2.3-3.6c0.2-0.5,0.4-0.9,0.5-1.3c0.3,0.1,0.5,0.2,0.8,0.4C24.8,4.7,24.9,4.8,24.9,4.8z M18,7.9
			c-0.3,1.4-0.7,2.6-1.3,3.6c0,0,0,0.1-0.1,0.1c0,0-0.1,0-0.1,0l-0.4-0.2c-0.1,0-0.1-0.1-0.1-0.1c0,0,0,0,0-0.1
			c0.3-0.6,0.6-1.2,0.8-1.8c0.1-0.4,0.3-1,0.4-1.7c0,0,0-0.1,0.1-0.1c0,0,0.1,0,0.2,0l0.4,0.1C17.9,7.7,18,7.8,18,7.9
			C18,7.8,18,7.9,18,7.9z M22.4,4.9C22.4,4.9,22.4,4.9,22.4,4.9c0.1,0.1,0,0.1,0,0.2l-0.2,0.3C22.1,5.6,22,5.6,22,5.6c0,0,0,0-0.1,0
			c-0.7-0.6-1.5-1.1-2.5-1.5c0,0-0.1,0-0.1-0.1c0,0,0-0.1,0.1-0.1l0.2-0.3c0.1-0.1,0.1-0.1,0.1-0.1c0,0,0,0,0.1,0
			C20.8,3.9,21.7,4.4,22.4,4.9z M26.6,11.3C26.6,11.3,26.6,11.3,26.6,11.3c0,0.1,0,0.2-0.1,0.2l-0.4,0.2c-0.1,0-0.1,0.1-0.2,0.1
			c0,0,0,0-0.1-0.1C25.5,10.3,25,9.1,24.3,8c0,0,0,0,0-0.1c0,0,0-0.1,0.1-0.1l0.4-0.2c0.1,0,0.1,0,0.1,0c0,0,0,0,0.1,0.1
			C25.7,8.7,26.2,9.9,26.6,11.3z"/>
		<path class="st1" d="M31.8,10.3c0,0.1,0,0.1-0.1,0.1c0,0-0.2,0.2-0.4,0.4c-0.8,1-1.7,1.9-2.8,2.6c-0.1,0.1-0.2,0.1-0.2,0.1
			c0,0-0.1-0.1-0.2-0.2c-0.1-0.1-0.2-0.3-0.4-0.4c1.2-0.7,2.2-1.6,2.9-2.6c0.1-0.2,0.3-0.4,0.4-0.7c0.2,0.1,0.4,0.2,0.6,0.3
			C31.8,10.2,31.8,10.2,31.8,10.3z M31.5,4.1c0,0.1,0,0.1-0.1,0.1c-0.1,0.1-0.2,0.2-0.4,0.4c-0.7,0.7-1.5,1.3-2.5,1.9
			c-0.1,0-0.1,0.1-0.2,0.1c0,0-0.1-0.1-0.2-0.2c-0.1-0.1-0.2-0.3-0.3-0.4c1-0.5,1.9-1.1,2.6-1.8c0.2-0.2,0.3-0.4,0.4-0.6
			c0.2,0.1,0.4,0.2,0.6,0.4C31.5,4,31.5,4,31.5,4.1z M31.6,7.1c0,0,0,0.1-0.1,0.1c-0.1,0-0.2,0.2-0.4,0.4c-0.7,0.8-1.5,1.4-2.4,2
			c-0.1,0.1-0.2,0.1-0.2,0.1c0,0-0.1-0.1-0.1-0.2c-0.1-0.1-0.2-0.3-0.3-0.4c1.1-0.6,1.9-1.2,2.6-2c0.2-0.2,0.3-0.4,0.4-0.6
			c0.2,0.1,0.4,0.2,0.6,0.4C31.6,7,31.6,7,31.6,7.1z M34.3,12.4c0,0,0,0.1-0.1,0.1c-0.1,0-0.2,0.1-0.3,0.2c-0.6,0.5-1.4,0.9-2.5,1.3
			c-0.1,0-0.1,0-0.2,0c-0.1,0-0.1-0.1-0.2-0.2c-0.1-0.2-0.2-0.3-0.4-0.4c1.2-0.3,2.1-0.8,2.6-1.3c0.1-0.1,0.2-0.3,0.3-0.3
			c0.2,0.1,0.4,0.2,0.6,0.4C34.2,12.3,34.3,12.4,34.3,12.4z M38.8,4.3C38.8,4.4,38.8,4.4,38.8,4.3L37,4.4h-1.5
			c-0.1,0.3-0.2,0.7-0.4,1.2h1.3l1.5,0c0.1,0,0.1,0,0.1,0.1l0,1.4v3.1l0,1.4c0,0.1,0,0.1-0.1,0.1l-1.5,0h-2.3l-1.5,0
			c-0.1,0-0.1,0-0.1-0.1l0-1.4V7.1l0-1.4c0-0.1,0-0.1,0.1-0.1l1.5,0h0.2c0.1-0.3,0.3-0.7,0.4-1.2h-1l-1.7,0c-0.1,0-0.1,0-0.1-0.1
			V3.8c0-0.1,0-0.1,0.1-0.1l1.7,0H37l1.7,0c0.1,0,0.1,0,0.1,0.1V4.3z M37.2,7.4V6.2h-4v1.2H37.2z M37.2,9.2V8h-4v1.2H37.2z
			 M37.2,11.1V9.8h-4v1.3H37.2z M39,13.5c-0.1,0.1-0.3,0.2-0.3,0.4S38.6,14,38.5,14c0,0-0.1,0-0.2-0.1c-0.8-0.4-1.5-1-2.1-1.6
			c0,0-0.1-0.1-0.1-0.1c0,0,0-0.1,0.1-0.1l0.3-0.2c0.1,0,0.1-0.1,0.1-0.1c0,0,0,0,0.1,0C37.4,12.6,38.2,13.1,39,13.5z"/>
	</g>
</g>
</svg>
