<?xml version="1.0" encoding="utf-8"?>
<!-- Generator: Adobe Illustrator 25.2.3, SVG Export Plug-In . SVG Version: 6.00 Build 0)  -->
<svg version="1.1" id="レイヤー_1" xmlns="http://www.w3.org/2000/svg" xmlns:xlink="http://www.w3.org/1999/xlink" x="0px"
	 y="0px" viewBox="0 0 138 94.1" style="enable-background:new 0 0 138 94.1;" xml:space="preserve">
<style type="text/css">
	.st0{fill:#FFFFFF;}
	.st1{fill:#EFEA3C;}
</style>
<g>
	<g>
		<g>
			<g>
				<path class="st0" d="M28.9,60h9.3c2.5,0.1,3.8,1.3,3.7,3.6V77H38V65.4h-1V77h-3.6V65.4h-0.9V77h-3.6V60z"/>
				<path class="st0" d="M43.8,65v-5h6.9c1.2,0,2,0.1,2.4,0.3c0.7,0.3,1.2,0.9,1.5,1.8c0.1,0.5,0.2,1.2,0.2,2V77h-8.4
					c-1.5,0-2.4-0.4-2.9-1.3c-0.4-0.7-0.5-1.9-0.5-3.8c0-1.6,0.1-2.7,0.2-3.3c0.3-1.5,1.4-2.3,3.2-2.3h3.9c0-0.5-0.1-0.8-0.2-1
					c-0.1-0.2-0.5-0.3-1-0.3H43.8z M50.4,72.2v-2.2h-2.2c-0.4,0-0.7,0.1-0.8,0.2c-0.2,0.1-0.2,0.4-0.2,0.9c0,0.5,0.1,0.8,0.2,0.9
					c0.1,0.1,0.4,0.2,0.9,0.2H50.4z"/>
				<path class="st0" d="M59,77V65.2c0-1.5,0.1-2.5,0.3-2.9c0.7-1.5,2-2.2,3.9-2.2h3.4v5.2H65c-0.6,0-1.1,0.1-1.3,0.4
					c-0.2,0.3-0.3,0.8-0.3,1.6V77H59z"/>
				<path class="st0" d="M70.3,60h4.3v10.3c0,0.5,0.1,0.9,0.3,1c0.2,0.1,0.7,0.2,1.4,0.2s1.2-0.1,1.4-0.3c0.1-0.2,0.2-0.5,0.2-0.9
					V60h4.2v12.6c0,1.6-0.4,2.7-1.3,3.4c-0.5,0.4-1.1,0.7-1.9,0.8C78.3,77,77.1,77,75.4,77c-1.4,0-2.3-0.1-2.8-0.3
					c-1.5-0.6-2.3-2-2.3-4.1V60z"/>
				<path class="st0" d="M84.2,60h7.1c1,0,1.7,0.1,2,0.2c0.8,0.3,1.4,0.8,1.7,1.5c0.2,0.6,0.4,1.3,0.4,2.2v13h-4.3V66.9
					c0-1-0.5-1.5-1.5-1.5h-1.2v11.5h-4.3V60z"/>
				<path class="st0" d="M98.3,65v-5h6.9c1.2,0,2,0.1,2.4,0.3c0.7,0.3,1.2,0.9,1.5,1.8c0.1,0.5,0.2,1.2,0.2,2V77H101
					c-1.5,0-2.4-0.4-2.9-1.3c-0.4-0.7-0.5-1.9-0.5-3.8c0-1.6,0.1-2.7,0.2-3.3c0.3-1.5,1.4-2.3,3.2-2.3h3.9c0-0.5-0.1-0.8-0.2-1
					c-0.1-0.2-0.5-0.3-1-0.3H98.3z M104.9,72.2v-2.2h-2.2c-0.4,0-0.7,0.1-0.8,0.2c-0.2,0.1-0.2,0.4-0.2,0.9c0,0.5,0.1,0.8,0.2,0.9
					c0.1,0.1,0.4,0.2,0.9,0.2H104.9z"/>
				<path class="st0" d="M111.3,77V54.1h4.3v12.9l2.8-7.1h4.6l-3.3,8l3.6,9.1h-4.7l-2.9-8.1V77H111.3z"/>
				<path class="st0" d="M125.5,65v-5h6.9c1.2,0,2,0.1,2.4,0.3c0.7,0.3,1.2,0.9,1.5,1.8c0.1,0.5,0.2,1.2,0.2,2V77h-8.4
					c-1.5,0-2.4-0.4-2.9-1.3c-0.4-0.7-0.5-1.9-0.5-3.8c0-1.6,0.1-2.7,0.2-3.3c0.3-1.5,1.4-2.3,3.2-2.3h3.9c0-0.5-0.1-0.8-0.2-1
					c-0.1-0.2-0.5-0.3-1-0.3H125.5z M132.1,72.2v-2.2H130c-0.4,0-0.7,0.1-0.8,0.2c-0.2,0.1-0.2,0.4-0.2,0.9c0,0.5,0.1,0.8,0.2,0.9
					c0.1,0.1,0.4,0.2,0.9,0.2H132.1z"/>
			</g>
		</g>
		<g>
			<g>
				<path class="st0" d="M90.8,84.7c-0.1,0.9-0.3,1.5-0.6,1.9c-0.4,0.7-1,1.3-2,1.7c-0.4,0.2-1,0.3-1.9,0.5v-3.1
					c0.6-0.2,1-0.4,1.2-0.8c0.2-0.3,0.3-0.9,0.4-1.8c0-0.5,0.1-0.9,0.1-1.3h9.5v5.9c0,1.4-0.2,2.4-0.5,3c-0.3,0.6-0.8,1.2-1.5,1.6
					c-0.5,0.3-1.2,0.6-2.2,0.7c-0.6,0.1-1.1,0.1-1.6,0.1h-4.5v-2.9h3.5c1.4,0,2.3-0.2,2.7-0.5c0.6-0.4,0.9-1.1,0.9-2.1v-3.1H90.8z"
					/>
				<path class="st0" d="M100.2,88.7v-7h3.1v7H100.2z M100.3,93.1v-2.9h4.1c1.1,0,1.9-0.3,2.2-0.8c0.2-0.3,0.3-1,0.3-2v-5.7h3.2v5.8
					c0,1.1-0.1,2-0.2,2.5c-0.3,1.1-0.9,1.9-2,2.5c-0.8,0.4-1.8,0.6-3,0.6H100.3z"/>
				<path class="st0" d="M112.5,88.9v-3h11.6v3H112.5z"/>
				<path class="st0" d="M125.8,93V90h4.6c1.3,0,2.2-0.3,2.8-0.9c0.3-0.3,0.5-0.7,0.5-1.2c0-0.3,0.1-0.7,0.1-1.3v-3.5h3.2v4.3
					c0,1.2-0.2,2.1-0.5,2.7c-0.5,1.1-1.4,1.9-2.7,2.4c-0.8,0.3-1.7,0.5-2.6,0.5H125.8z M131.8,83.3v3.2c-1.6-0.5-3.6-1-5.9-1.6v-3.1
					C128.1,82.3,130,82.8,131.8,83.3z"/>
			</g>
		</g>
		<polygon class="st0" points="2,88.5 0,88.5 0,34.2 45.9,0 89.1,32.2 77.8,45.9 45.9,22.2 18.3,42.7 18.3,86.5 81,86.5 81,88.5 
			16.3,88.5 16.3,41.7 45.9,19.7 77.5,43.2 86.2,32.5 45.9,2.5 2,35.2 		"/>
		<g>
			<path class="st1" d="M121.2,36.6c-3.4,2.9-5.3,5.4-7.5,9.8c-0.1,0.2-0.4,0.2-0.5,0c-2.2-4.4-4.1-6.9-7.5-9.8
				c-0.1-0.1-0.1-0.3,0-0.4c3.4-2.9,5.3-5.4,7.5-9.8c0.1-0.2,0.4-0.2,0.5,0c2.2,4.4,4.1,6.9,7.5,9.8
				C121.3,36.3,121.3,36.5,121.2,36.6z"/>
			<path class="st1" d="M113.4,47.9c-0.6,0-1.1-0.3-1.4-0.9c-2.1-4.3-3.9-6.6-7.2-9.4c-0.4-0.3-0.6-0.7-0.6-1.2
				c0-0.5,0.2-0.9,0.6-1.2c3.3-2.8,5-5.1,7.2-9.4c0.3-0.5,0.8-0.9,1.4-0.9c0.6,0,1.1,0.3,1.4,0.9c2.1,4.3,3.9,6.6,7.2,9.4
				c0.4,0.3,0.6,0.7,0.6,1.2c0,0.5-0.2,0.9-0.6,1.2c-3.3,2.8-5.1,5.1-7.2,9.4C114.6,47.5,114,47.9,113.4,47.9z M113.1,29.5
				c-1.5,2.6-3.1,4.6-5.3,6.6l-0.3,0.3l0.3,0.3c2.2,2,3.7,4,5.3,6.6l0.4,0.6l0.4-0.6c1.5-2.6,3-4.6,5.3-6.6l0.3-0.3l-0.3-0.3
				c-2.2-2-3.7-4-5.3-6.6l-0.4-0.6L113.1,29.5z"/>
		</g>
	</g>
</g>
</svg>
