<?xml version="1.0" encoding="utf-8"?>
<!-- Generator: Adobe Illustrator 25.2.3, SVG Export Plug-In . SVG Version: 6.00 Build 0)  -->
<svg version="1.1" id="レイヤー_1" xmlns="http://www.w3.org/2000/svg" xmlns:xlink="http://www.w3.org/1999/xlink" x="0px"
	 y="0px" viewBox="0 0 170.5 118.5" style="enable-background:new 0 0 170.5 118.5;" xml:space="preserve">
<style type="text/css">
	.st0{fill:#32A2D3;}
	.st1{fill:#FFFFFF;}
	.st2{fill:#EFEA3C;}
</style>
<g>
	<rect class="st0" width="170.5" height="118.5"/>
	<g>
		<g>
			<g>
				<path class="st1" d="M45.6,72.6h9.3c2.5,0.1,3.8,1.3,3.7,3.6v13.5h-3.9V78h-1v11.7h-3.6V78h-0.9v11.7h-3.6V72.6z"/>
				<path class="st1" d="M60.6,77.7v-5h6.9c1.2,0,2,0.1,2.4,0.3c0.7,0.3,1.2,0.9,1.5,1.8c0.1,0.5,0.2,1.2,0.2,2v12.8h-8.4
					c-1.5,0-2.4-0.4-2.9-1.3c-0.4-0.7-0.5-1.9-0.5-3.8c0-1.6,0.1-2.7,0.2-3.3c0.3-1.5,1.4-2.3,3.2-2.3h3.9c0-0.5-0.1-0.8-0.2-1
					c-0.1-0.2-0.5-0.3-1-0.3H60.6z M67.2,84.9v-2.2H65c-0.4,0-0.7,0.1-0.8,0.2C64,83.1,64,83.4,64,83.9c0,0.5,0.1,0.8,0.2,0.9
					c0.1,0.1,0.4,0.2,0.9,0.2H67.2z"/>
				<path class="st1" d="M75.7,89.7V77.8c0-1.5,0.1-2.5,0.3-2.9c0.7-1.5,2-2.2,3.9-2.2h3.4v5.2h-1.7c-0.6,0-1.1,0.1-1.3,0.4
					c-0.2,0.3-0.3,0.8-0.3,1.6v9.7H75.7z"/>
				<path class="st1" d="M87.1,72.7h4.3V83c0,0.5,0.1,0.9,0.3,1c0.2,0.1,0.7,0.2,1.4,0.2s1.2-0.1,1.4-0.3c0.1-0.2,0.2-0.5,0.2-0.9
					V72.7h4.2v12.6c0,1.6-0.4,2.7-1.3,3.4c-0.5,0.4-1.1,0.7-1.9,0.8c-0.6,0.1-1.7,0.1-3.5,0.1c-1.4,0-2.3-0.1-2.8-0.3
					c-1.5-0.6-2.3-2-2.3-4.1V72.7z"/>
				<path class="st1" d="M101,72.7h7.1c1,0,1.7,0.1,2,0.2c0.8,0.3,1.4,0.8,1.7,1.5c0.2,0.6,0.4,1.3,0.4,2.2v13h-4.3v-10
					c0-1-0.5-1.5-1.5-1.5h-1.2v11.5H101V72.7z"/>
				<path class="st1" d="M115.1,77.7v-5h6.9c1.2,0,2,0.1,2.4,0.3c0.7,0.3,1.2,0.9,1.5,1.8c0.1,0.5,0.2,1.2,0.2,2v12.8h-8.4
					c-1.5,0-2.4-0.4-2.9-1.3c-0.4-0.7-0.5-1.9-0.5-3.8c0-1.6,0.1-2.7,0.2-3.3c0.3-1.5,1.4-2.3,3.2-2.3h3.9c0-0.5-0.1-0.8-0.2-1
					c-0.1-0.2-0.5-0.3-1-0.3H115.1z M121.7,84.9v-2.2h-2.2c-0.4,0-0.7,0.1-0.8,0.2c-0.2,0.1-0.2,0.4-0.2,0.9c0,0.5,0.1,0.8,0.2,0.9
					c0.1,0.1,0.4,0.2,0.9,0.2H121.7z"/>
				<path class="st1" d="M128,89.7V66.8h4.3v12.9l2.8-7.1h4.6l-3.3,8l3.6,9.1h-4.7l-2.9-8.1v8.1H128z"/>
				<path class="st1" d="M142.3,77.7v-5h6.9c1.2,0,2,0.1,2.4,0.3c0.7,0.3,1.2,0.9,1.5,1.8c0.1,0.5,0.2,1.2,0.2,2v12.8H145
					c-1.5,0-2.4-0.4-2.9-1.3c-0.4-0.7-0.5-1.9-0.5-3.8c0-1.6,0.1-2.7,0.2-3.3c0.3-1.5,1.4-2.3,3.2-2.3h3.9c0-0.5-0.1-0.8-0.2-1
					c-0.1-0.2-0.5-0.3-1-0.3H142.3z M148.9,84.9v-2.2h-2.2c-0.4,0-0.7,0.1-0.8,0.2c-0.2,0.1-0.2,0.4-0.2,0.9c0,0.5,0.1,0.8,0.2,0.9
					c0.1,0.1,0.4,0.2,0.9,0.2H148.9z"/>
			</g>
		</g>
		<g>
			<g>
				<path class="st1" d="M107.6,97.4c-0.1,0.9-0.3,1.5-0.5,1.9c-0.4,0.7-1,1.3-2,1.7c-0.4,0.2-1,0.3-1.9,0.5v-3.1
					c0.6-0.2,1-0.4,1.2-0.8c0.2-0.3,0.3-0.9,0.4-1.8c0-0.5,0.1-0.9,0.1-1.3h9.5v5.9c0,1.4-0.2,2.4-0.5,3c-0.3,0.6-0.8,1.2-1.5,1.6
					c-0.5,0.3-1.2,0.6-2.2,0.7c-0.6,0.1-1.1,0.1-1.6,0.1h-4.5V103h3.5c1.4,0,2.3-0.2,2.7-0.5c0.6-0.4,0.9-1.1,0.9-2.1v-3.1H107.6z"
					/>
				<path class="st1" d="M117,101.4v-7h3.1v7H117z M117.1,105.8v-2.9h4.1c1.1,0,1.9-0.3,2.2-0.8c0.2-0.3,0.3-1,0.3-2v-5.7h3.2v5.8
					c0,1.1-0.1,2-0.2,2.5c-0.3,1.1-0.9,1.9-2,2.5c-0.8,0.4-1.8,0.6-3,0.6H117.1z"/>
				<path class="st1" d="M129.3,101.5v-3h11.6v3H129.3z"/>
				<path class="st1" d="M142.6,105.7v-3.1h4.6c1.3,0,2.2-0.3,2.8-0.9c0.3-0.3,0.5-0.7,0.5-1.2c0-0.3,0.1-0.7,0.1-1.3v-3.5h3.2v4.3
					c0,1.2-0.2,2.1-0.5,2.7c-0.5,1.1-1.4,1.9-2.7,2.4c-0.8,0.3-1.7,0.5-2.6,0.5H142.6z M148.5,95.9v3.2c-1.6-0.5-3.6-1-5.9-1.6v-3.1
					C144.8,95,146.8,95.4,148.5,95.9z"/>
			</g>
		</g>
		<polygon class="st1" points="18.8,101.1 16.8,101.1 16.8,46.8 62.7,12.7 105.9,44.8 94.6,58.6 62.7,34.9 35,55.4 35,99.1 
			97.8,99.1 97.8,101.1 33,101.1 33,54.4 62.7,32.4 94.3,55.9 103,45.2 62.7,15.2 18.8,47.8 		"/>
		<g>
			<path class="st2" d="M137.9,49.3c-3.4,2.9-5.3,5.4-7.5,9.8c-0.1,0.2-0.4,0.2-0.5,0c-2.2-4.4-4.1-6.9-7.5-9.8
				c-0.1-0.1-0.1-0.3,0-0.4c3.4-2.9,5.3-5.4,7.5-9.8c0.1-0.2,0.4-0.2,0.5,0c2.2,4.4,4.1,6.9,7.5,9.8C138.1,49,138.1,49.2,137.9,49.3
				z"/>
			<path class="st2" d="M130.2,60.5c-0.6,0-1.1-0.3-1.4-0.9c-2.1-4.3-3.9-6.6-7.2-9.4c-0.4-0.3-0.6-0.7-0.6-1.2
				c0-0.5,0.2-0.9,0.6-1.2c3.3-2.8,5-5.1,7.2-9.4c0.3-0.5,0.8-0.9,1.4-0.9c0.6,0,1.1,0.3,1.4,0.9c2.1,4.3,3.9,6.6,7.2,9.4
				c0.4,0.3,0.6,0.7,0.6,1.2s-0.2,0.9-0.6,1.2c-3.3,2.8-5,5.1-7.2,9.4C131.3,60.2,130.8,60.5,130.2,60.5z M129.8,42.1
				c-1.5,2.6-3,4.6-5.3,6.6l-0.3,0.3l0.3,0.3c2.2,2,3.7,4,5.3,6.6l0.4,0.6l0.4-0.6c1.5-2.6,3-4.6,5.3-6.6l0.3-0.3l-0.3-0.3
				c-2.2-2-3.7-4-5.3-6.6l-0.4-0.6L129.8,42.1z"/>
		</g>
	</g>
</g>
</svg>
